<svg width="123" height="35" viewBox="0 0 123 35" fill="none" xmlns="http://www.w3.org/2000/svg">
<path d="M2.8129 7.67544C2.8129 4.95017 5.09492 2.73298 7.89986 2.73298H27.7406C30.5457 2.73298 32.8276 4.95017 32.8276 7.67544V26.9527C32.8276 29.6779 30.5457 31.8951 27.7406 31.8951H7.89986C5.09492 31.8951 2.8129 29.6779 2.8129 26.9527V7.67544ZM7.89986 34.6277H27.7406C32.0967 34.6277 35.6406 31.185 35.6406 26.9527V7.67544C35.6406 3.44316 32.0967 0 27.7406 0H7.89986C3.54383 0 0 3.44316 0 7.67544V26.9527C0 31.185 3.54383 34.6277 7.89986 34.6277Z" fill="currentColor"/>
<path d="M53.1216 9.7684H56.9142L60.9199 19.5411H61.0904L65.0961 9.7684H68.8887V24.3139H65.9057V14.8465H65.785L62.0208 24.2428H59.9895L56.2253 14.811H56.1046V24.3139H53.1216V9.7684ZM76.2946 24.5269C75.1913 24.5269 74.2373 24.2926 73.4324 23.8238C72.6322 23.3503 72.0143 22.6922 71.5787 21.8494C71.1431 21.0018 70.9252 20.0194 70.9252 18.9019C70.9252 17.775 71.1431 16.7902 71.5787 15.9474C72.0143 15.0998 72.6322 14.4417 73.4324 13.9729C74.2373 13.4995 75.1913 13.2627 76.2946 13.2627C77.3978 13.2627 78.3495 13.4995 79.1497 13.9729C79.9546 14.4417 80.5749 15.0998 81.0105 15.9474C81.4461 16.7902 81.6639 17.775 81.6639 18.9019C81.6639 20.0194 81.4461 21.0018 81.0105 21.8494C80.5749 22.6922 79.9546 23.3503 79.1497 23.8238C78.3495 24.2926 77.3978 24.5269 76.2946 24.5269ZM76.3088 22.1832C76.8107 22.1832 77.2297 22.0411 77.5659 21.757C77.902 21.4682 78.1554 21.0752 78.3258 20.5781C78.501 20.0809 78.5886 19.5151 78.5886 18.8806C78.5886 18.2461 78.501 17.6803 78.3258 17.1832C78.1554 16.686 77.902 16.293 77.5659 16.0042C77.2297 15.7154 76.8107 15.571 76.3088 15.571C75.8021 15.571 75.376 15.7154 75.0304 16.0042C74.6895 16.293 74.4314 16.686 74.2562 17.1832C74.0858 17.6803 74.0005 18.2461 74.0005 18.8806C74.0005 19.5151 74.0858 20.0809 74.2562 20.5781C74.4314 21.0752 74.6895 21.4682 75.0304 21.757C75.376 22.0411 75.8021 22.1832 76.3088 22.1832ZM93.4501 13.4048L89.6362 24.3139H86.2271L82.4132 13.4048H85.6092L87.8748 21.2102H87.9885L90.247 13.4048H93.4501ZM94.9984 24.3139V13.4048H98.024V24.3139H94.9984ZM96.5183 11.9985C96.0685 11.9985 95.6826 11.8494 95.3606 11.5511C95.0434 11.248 94.8848 10.8858 94.8848 10.4644C94.8848 10.0478 95.0434 9.69028 95.3606 9.39198C95.6826 9.08895 96.0685 8.93744 96.5183 8.93744C96.9681 8.93744 97.3516 9.08895 97.6689 9.39198C97.9908 9.69028 98.1518 10.0478 98.1518 10.4644C98.1518 10.8858 97.9908 11.248 97.6689 11.5511C97.3516 11.8494 96.9681 11.9985 96.5183 11.9985ZM105.419 24.5269C104.297 24.5269 103.331 24.2997 102.521 23.8451C101.717 23.3858 101.096 22.7372 100.661 21.8991C100.225 21.0563 100.007 20.0596 100.007 18.909C100.007 17.7869 100.225 16.802 100.661 15.9545C101.096 15.1069 101.709 14.4464 102.5 13.9729C103.296 13.4995 104.228 13.2627 105.298 13.2627C106.018 13.2627 106.688 13.3787 107.308 13.6107C107.933 13.838 108.478 14.1813 108.942 14.6406C109.411 15.0998 109.775 15.6775 110.036 16.3735C110.296 17.0648 110.426 17.8745 110.426 18.8025V19.6335H101.215V17.7585H107.578C107.578 17.3229 107.484 16.937 107.294 16.6008C107.105 16.2646 106.842 16.0018 106.506 15.8124C106.174 15.6183 105.789 15.5212 105.348 15.5212C104.889 15.5212 104.482 15.6278 104.127 15.8408C103.776 16.0492 103.502 16.3309 103.303 16.686C103.104 17.0364 103.002 17.427 102.997 17.8579V19.6406C102.997 20.1803 103.097 20.6467 103.296 21.0397C103.499 21.4327 103.786 21.7357 104.155 21.9488C104.524 22.1619 104.962 22.2684 105.469 22.2684C105.805 22.2684 106.113 22.2211 106.392 22.1264C106.672 22.0317 106.911 21.8896 107.11 21.7002C107.308 21.5108 107.46 21.2788 107.564 21.0042L110.362 21.1889C110.22 21.8612 109.929 22.4483 109.489 22.9502C109.053 23.4474 108.49 23.8356 107.798 24.115C107.112 24.3896 106.319 24.5269 105.419 24.5269ZM121.477 16.5156L118.708 16.686C118.66 16.4493 118.558 16.2362 118.402 16.0468C118.246 15.8527 118.04 15.6988 117.784 15.5852C117.533 15.4668 117.233 15.4076 116.882 15.4076C116.414 15.4076 116.018 15.507 115.696 15.7059C115.374 15.9 115.213 16.1604 115.213 16.4872C115.213 16.7476 115.317 16.9677 115.526 17.1477C115.734 17.3276 116.092 17.472 116.598 17.5809L118.573 17.9786C119.633 18.1964 120.424 18.5468 120.945 19.0298C121.466 19.5127 121.726 20.1472 121.726 20.9332C121.726 21.6481 121.515 22.2755 121.094 22.8153C120.677 23.3551 120.104 23.7765 119.375 24.0795C118.651 24.3778 117.815 24.5269 116.868 24.5269C115.424 24.5269 114.273 24.2263 113.416 23.6249C112.564 23.0189 112.065 22.195 111.918 21.1533L114.894 20.9971C114.984 21.4374 115.201 21.7736 115.547 22.0056C115.893 22.2329 116.335 22.3465 116.875 22.3465C117.405 22.3465 117.832 22.2447 118.154 22.0411C118.48 21.8328 118.646 21.5653 118.651 21.2386C118.646 20.964 118.53 20.739 118.303 20.5639C118.075 20.3839 117.725 20.2466 117.252 20.1519L115.362 19.7755C114.297 19.5624 113.504 19.1931 112.983 18.6676C112.467 18.142 112.209 17.472 112.209 16.6576C112.209 15.9569 112.398 15.3532 112.777 14.8465C113.161 14.3399 113.698 13.9493 114.389 13.6747C115.085 13.4 115.9 13.2627 116.833 13.2627C118.21 13.2627 119.295 13.5539 120.085 14.1363C120.881 14.7187 121.345 15.5118 121.477 16.5156Z" fill="currentColor"/>
</svg>
